<?xml version="1.0" encoding="utf-8"?>
<!-- Generator: Adobe Illustrator 27.9.6, SVG Export Plug-In . SVG Version: 9.03 Build 54986)  -->
<svg version="1.1" id="Layer_1" xmlns="http://www.w3.org/2000/svg" xmlns:xlink="http://www.w3.org/1999/xlink" x="0px" y="0px"
	 viewBox="0 0 287 235" enable-background="new 0 0 287 235" xml:space="preserve">
<g>
	<g>
		<g>
			<g>
				<g>
					<path d="M272.9,181c0-0.3-0.5-0.3-0.6,0c-2.1,4.8-9,4.3-11.6,0.3c-3.5-5.4,0.6-11.8,2.5-17c1.5-4.2,2.5-10.4,1.1-15.4
						c-0.2-0.8-0.4-1.6-0.8-2.3c-1.3-2.8-4.5-4.5-6.9-6.2c-2.5-1.8-4.7-3.7-5.5-6.8c-0.5-1.9-0.5-4-0.6-5.9
						c-0.1-2.2-0.2-4.4-0.2-6.6c-0.1-4.2,0-8.4-0.4-12.6c-0.3-4.3-1.2-8.4-2.4-12.6c-2.4-8.4-5.2-16.8-8.6-24.8
						c-4-9.3-8.9-19-17.2-25.1c-4.2-3.1-8.7-6.2-13.6-8.1c-2.5-1-5.1-1.3-7.8-1.1c-1,0.1-1.9,0.2-2.8,0.4c-0.1-0.2-0.2-0.4-0.3-0.6
						c-1-2.1-2.7-3.9-4.5-5.4c-4-3.4-9.2-5.2-14.2-6.6c-12.7-3.5-26.2-4.7-39.3-3.4c-7.9,0.8-15.6,2.6-23.1,5.1
						c-7.3,2.5-14.5,5.7-20.9,10c-6,4-11.4,9.1-15.6,15.1c-4.6,6.5-7.3,13.9-9.2,21.6c-1.4,6-2.4,12.1-3.2,18.3
						c-0.6,4.2-1.7,8.9-4.9,11.9c-3.3,3.1-8,3.9-12.2,5.4c-1.3,0.5-2.6,1.1-3.7,1.8c-3.4,1.1-6.4,3.5-8.5,6.4
						c-1.4,1.8-2.4,3.9-3,6.1c-0.3,1.1-0.5,2.3-0.5,3.4c0,1.5,0.5,2.9,0.7,4.4c0.3,2.9-1.4,6.2-2.8,8.7c-1.1,2.1-2.8,3.7-5,4.7
						c-3.9,1.8-9.9,0.8-12-3.3c-0.2-0.4-0.6,0-0.7,0.2c-1.4,4.3,1.3,8.7,4.8,11c2.5,1.6,6.5,3.3,9.2,1.9c-0.4,1.7-0.5,3.4-0.4,5
						c0.3,9.6,7.8,16.9,16.4,20.1c0.9,0.3,1.9-0.7,1.6-1.6c-0.1-0.3-0.2-0.6-0.3-1c0.9,1.1,1.8,2.1,2.8,3c2.8,2.6,6,4.6,9.4,6.2
						c3,1.4,6.5,2.5,9.7,1.6c0.1,0.2,0.3,0.5,0.5,0.7c2.4,3.3,6.1,5.2,10.1,6.1c2.2,0.5,4.5,0.7,6.8,0.4c1.8-0.2,3.1-1.2,4.4-2.3
						c5.2,5.7,11.4,10.5,18.1,14.1c13.5,7.2,29.4,9.4,44.5,8.1c12.9-1.1,25.8-4.8,37.3-10.9c2.6,1.7,6.5,1.4,9.3,0.9
						c0.5-0.1,1-0.2,1.5-0.3c0.6,1.1,2.2,1.8,3.2,2.2c1.8,0.8,3.8,1.3,5.7,1.6c4.1,0.5,8-0.3,11.8-1.8c2.6-1.1,5-2.6,7.1-4.4
						c-0.2,0.3-0.2,0.7,0.2,0.9c2.2,1.3,5.5,1.2,7.9,0.6c2.9-0.6,5.6-2,7.8-4c2.5-2.2,4.2-5.3,4.6-8.6c0.1-0.8,0.1-1.6,0-2.4
						c0.6,0.7,1.2,1.3,2,1.9c1.1,0.8,2.4,1.5,3.7,1.9c2.7,0.9,5.8,1.1,8.6,0.4C267.5,191.1,273.4,186.3,272.9,181z"/>
					<path fill="#FDCFA7" d="M167.6,208.6c-14,3.6-29,4-43,0.5c-7.4-1.8-14.5-5-20.9-9.2c-6.6-4.3-12.2-9.9-17.1-16
						c-4.8-5.9-8.8-12.5-10-20.2c-0.7-4.3,0.2-8.7,1.2-12.9c1-4.2,2.3-8.3,3.2-12.4c2.5-10.9,3.5-22.1,6.7-32.9
						c0.6-2.1,1.4-4.2,2.2-6.2c1.3,0.7,2.7,1.4,4.1,1.9c2.8,1.4,5.9,2.3,9,2.8c6.3,1,12.8,0.6,19.1-0.3c3.1-0.4,6.1-1.3,9-2.6
						c11.1,0.9,22.2-2.7,31.7-8.8c6-3.9,11.9-8.7,16.4-14.3c2.4-3,4.5-6.3,6.2-9.8c-1.2,6.7-0.7,13.7,1.7,20.2
						c2.4,6.4,7.6,10.9,13.5,14c4.6,2.4,9.6,3.6,14.6,4.8c2,0.5,4.7,1.1,7.4,2c-0.1,0.4-0.3,0.9-0.4,1.3c-1.1,4.2-2.2,8.5-3,12.8
						c-1.7,8.7-2.2,17.4-1.9,26.3c0.3,8.5,0.9,17.4-2.9,25.4c-2.8,5.9-6.8,11.1-11.5,15.5C193.2,199.7,180.5,205.3,167.6,208.6z"/>
					<path fill="#FDCFA7" d="M220.9,155.9c0-0.8,0-1.7,0.1-2.5c0.3,0.5,0.8,0.8,1.5,1c1.2,0.2,2.2-0.3,3.3-0.6c0.1,0,0.2-0.2,0-0.2
						c-0.8-0.2-1.4-0.7-2.1-1.2c-0.8-0.6-1.5-1-2.4-1.2c0.3-1.5,0.9-3,1.4-4.5c0.6-1.5,1.5-2.6,2.8-3.6c0.6-0.4,1.3-0.7,2-0.7
						c1,0,1.3,1.4,1.4,2.1c0.1,0.6,1.1,0.2,1-0.3c-0.1-2.1-1-4-3.4-3.7c-2.2,0.3-4.1,2.4-5.2,4.1c-0.8,1.3-1.4,2.9-1.8,4.4
						c-0.1-4-0.2-7.9,0.1-11.9c0-0.6,0.1-1.3,0.1-1.9c0.8-1.1,2.1-1.8,3.5-2.2c2.2-0.6,4.1,0.1,5.6,1.7c2.8,2.9,3.7,7.6,3.2,11.5
						c-0.5,4.1-2.2,8.1-4.7,11.4c-1.1,1.4-2.4,2.6-3.9,3.6c-1,0.7-2.4,1.6-3.8,1.7c0.1-1.7,0.1-3.3,0.1-5c0.2,0.2,0.4,0.3,0.7,0.3
						c0.2,0,0.4-0.2,0.4-0.3C221.3,157.4,221,156.7,220.9,155.9z"/>
					<path fill="#FDDF66" d="M262,189.9c-2.2,0.3-4.6-0.2-6.7-1c-1.1-0.4-2.2-0.8-3.2-1.3c-1.1-0.5-2.3-1-3.3-1.7
						c-0.2-0.1-0.4-0.1-0.6-0.1c-0.3-1.2-0.6-2.4-1.1-3.5c-0.2,2-0.4,3.9-1,5.7c-0.4,3.2-1.6,6.1-4.2,8.3c-1.7,1.4-3.9,2.4-6.1,3
						c-1.1,0.3-2.2,0.6-3.3,0.8c-1.2,0.3-2.5,0.3-3.6,0.6c0.7-0.7,1.4-1.4,2.1-2.2c1.3-1.5,2.4-3.2,3.4-4.9c0.5-0.9,1.1-2,1.5-3.1
						c-0.8,1-1.8,1.9-2.7,2.8c-1.3,1.2-2.7,2.5-4.2,3.5c-2.6,2.1-5.5,3.9-8.6,5.2c-3.1,1.4-6.5,1.9-9.9,1.9c-1.8,0-3.5-0.1-5.3-0.3
						c-0.8-0.1-1.5-0.3-2.3-0.6c2.6-1,5-2.3,7.3-3.8c1.7-1.1,3.2-2.5,4.6-4c0.7-1.2,1.2-2.4,1.7-3.6c0.4-1.2,0.8-2.4,1.1-3.7
						c-0.1,0.1-0.2,0.3-0.2,0.4c-1.9,3.2-4.2,5.8-7.3,7.9c-3,2.1-6.5,3.6-9.9,4.6c-1.8,0.5-3.5,1-5.4,1.3c-1.1,0.2-2.1,0.1-3.1-0.1
						c11-6.2,20.5-15.2,25.7-26.8c1.5-3.3,2.2-6.8,2.6-10.3c1,0.3,2.6-0.3,3.3-0.7c2-1.1,3.9-2.6,5.5-4.2c3.8-4,6-9.5,6.4-15
						c0.3-5-1.8-10.9-6.4-13.4c-2.7-1.4-6.2-0.5-8.4,1.6c0.6-5.2,1.6-10.4,2.7-15.6c0.5-2.5,1.2-5,1.8-7.6c2.9,1.3,5.3,3.2,6,6
						c0.1-1.4-0.3-2.7-1-4c-0.9-1.6-2.1-3.4-3.7-4.3c-0.6-0.4-2.5-1.4-3.3-2.5c-2.9-1.5-5.9-2.6-9-3.5c-5.3-1.7-10.7-3.5-15.2-6.9
						c-5.8-4.3-8.4-10.6-10-17.5c-0.9-3.9-1.4-8-0.9-12c0-3.1,0.6-6.2,0.8-9.3c-1.3,2.8-2.1,5.8-3.5,8.5c-1.8,3.5-3.9,6.9-6.4,9.9
						c-4.5,5.6-10.2,10.2-16.1,14.2c-8.2,5.5-17.5,9.4-27.2,10.3c2.4-1.3,4.7-2.8,6.8-4.4c5.7-4.3,10.4-10.1,14.6-15.8
						c0.2-0.3-0.1-0.5-0.3-0.3c-4.4,5.2-9.2,9.6-14.9,13.3c-2.2,1.4-4.6,2.7-7,3.8c-1.3,0.9-2.6,1.6-4,2.3c-2.2,1.1-4.5,1.8-7,2.1
						c-2.6,0.3-5.2,0.2-7.7,0.5c-2.7,0.3-5.5,0.6-8.2,0.2c-0.6-0.1-1.1-0.2-1.7-0.3c-3.8-0.3-7.5-0.9-11-2.3c-1-0.3-2.1-0.7-3.1-1.1
						c-1.4-0.6-2.9-1.4-3.8-2.7c-0.1,0-0.1,0-0.2,0c-0.3-0.3-0.7-0.5-1-0.8c-2.7-2.2-5.3-4.6-7.5-7.3c-1.8-2.2-3.6-4.8-4-7.7
						c1.1,1,2.2,2.1,3.4,3c1.7,1.3,3.7,2.4,5.7,3.2c1.7,0.7,3.5,1.2,5.3,1.5c1-0.2,2.4,0.2,3.3,0.4c0.1,0,0.2,0,0.3,0.1
						c0.3,0,0.7,0,1,0.1c0,0,0,0,0,0.1c0.5,0.1,1.1,0.1,1.6,0.1c0,0,0-0.1,0.1-0.1c1.5,0,3.1-0.1,4.7-0.3c2.2-0.4,4.5-1,6.6-1.7
						c1-0.4,1.9-0.8,2.8-1.3c-1.4,0.5-2.9,0.9-4.5,1c-2.9,0.3-6,0.5-8.9,0.2c-1.1-0.1-2.3-0.3-3.3-0.9c-2.6-0.3-5.1-0.9-7.5-1.9
						c-1.9-0.8-3.7-1.9-5.5-3c-1.7-1-3.7-1.9-5.3-3c-0.6-0.4-1.3,0.2-1.4,0.8c-0.3,7.4,5.6,13.9,10.7,18.6c1.1,1,2.3,1.9,3.5,2.7
						c-0.1,0.2-0.2,0.3-0.2,0.5c-3.6,7.9-5.6,16.5-6.9,25.1c0,0.2,0,0.3-0.1,0.5c-1.6-2.3-4.6-3.5-7.3-3.6c-6.1-0.4-11,4.1-13.2,9.4
						c-2.1,5.1-2,11-0.3,16.2c0.8,2.6,2.1,5,3.9,7.1c1.7,2.1,4,3.7,6.3,5.2c1.4,0.9,3.7,1.9,4.9,0.3c-0.4,4.8,0,9.6,1.8,14.3
						c2.4,6.3,6.5,12,11,17.1c-0.1,0-0.1,0-0.2,0c-0.6-0.1-1.2-0.1-1.9-0.2c-1.7-0.1-3.5-0.6-5.2-1c-3.3-0.8-6.2-2.1-8.8-4.2
						c-1.5-0.9-2.9-2.1-3.9-3.8c-1.3-2-2.5-4.2-3.4-6.6c0.1,2.9,0.3,5.8,1.2,8.5c-1.6-0.5-3.2-0.9-4.7-1.5c-2.5-1-4.8-2.3-7.1-3.8
						c-3.4-1.4-6.7-3.3-8.7-6.4c-1.2-1.9-2.5-3.9-2.3-6.2c-0.6,1.6-1.1,3.3-0.9,5.2c0.1,1.6,0.9,3.1,1.3,4.6
						c-2.3-1.8-4.7-3.6-6.7-5.7c-2.7-2.9-4.4-6.3-5-10.3c-0.1-0.5-0.1-1-0.2-1.5c-0.4-2.2-0.5-4.7,0-6.8c0.9-3.5,3.4-6.8,6.7-8.7
						c-4.3,1-7.2,4.4-8.8,8.4c0,0,0,0,0,0c-5.4,1.1-13.6-2.5-14.2-8.5c1.2,1.3,2.4,2.4,4.1,3.2c1.8,0.8,3.8,1,5.7,0.8
						c5-0.5,8.3-4.3,10.4-8.6c1.3-2.6,2.1-5.6,1.6-8.4c-0.2-1.4-0.6-2.7-0.5-4.1c0.1-1.3,0.5-2.6,0.9-3.8c0.6-1.5,1.3-2.9,2.3-4.2
						c0.1,0.1,0.2,0,0.3-0.1c2.1-2.7,4.7-4.6,7.9-5.9c3-1.1,6.3-1.5,9.3-2.5c5.7-1.9,9.3-6.2,11.1-11.9c1.1-3.6,1.4-7.5,2-11.2
						c0.7-4.3,1.5-8.5,2.6-12.7c2.1-7.6,5.2-14.9,10.2-21.1c9.4-12,23.4-19,37.8-23.2c15-4.4,30.5-4.9,45.8-2.4
						c6.3,1,12.5,2.4,18.4,4.8c1.6,0.6,3.2,1.4,4.8,2.4c1.2,0.5,2.4,1.1,3.5,1.9c1.4,1,2.7,2.3,3.5,3.9c0.5,1.1,0.9,2.3,1.3,3.4
						c-0.1-1.3-0.2-2.6-0.6-3.9c2-0.1,3.9,0,5.8,0.5c3.7,1,7,3.2,10.1,5.3c3,2,6,4.2,8.7,6.7c2.7,2.5,4.9,5.5,6.8,8.6
						c4.2,6.5,7.1,13.7,9.8,20.9c1.6,4.2,3,8.5,4.3,12.8c1.3,4.2,2.5,8.4,3.2,12.7c0.8,5.4,0.6,10.9,0.7,16.3c0,2.7,0.1,5.4,0.3,8.1
						c0.2,2.5,0.4,4.9,1.5,7.1c1.8,3.6,5.7,5.7,8.8,8c1.6,1.2,2.9,2.5,3.4,4.4c0.5,1.8,0.3,3.6,0.8,5.4c-0.2,2.3-0.5,4.6-1.2,6.8
						c-0.7,2.6-2,5.1-3,7.7c-2,5.4-2.5,12.6,3.5,15.7c2,1,4.5,1,6.6,0.3c1.8-0.6,3-1.7,4-3.2C271.3,186.7,266,189.4,262,189.9z"/>
					<path fill="#FDCFA7" d="M75.2,157.7c-0.1-0.1-0.2-0.2-0.4-0.2c-2.2-0.4-4-2.2-5.9-3.4c-1.9-1.3-3.5-3.1-4.7-5
						c-2.7-4.2-3.8-9.6-3.1-14.5c0.8-5.1,3.9-10.2,9.1-11.5c2.9-0.7,6-0.2,8.3,1.9c0.9,0.8,1.5,1.8,1.9,2.7c-1,7.5-2,15.1-3.8,22.5
						C76,152.7,75.5,155.2,75.2,157.7z"/>
					<path fill="#F6CBA1" d="M87.9,152.6c0,0,11,2.8,18.2,14.5c2.8,4.1,1.1-2.8,1.1-2.8s19.9,6.1,22.7-19.5c0.6-9.7-2-21.3-9.1-25.2
						c-3.2-2.2,0.5-5.4,5.5,1.3c5,6.7,6.3,2.8,3.9-2.2c-2.4-5-14.6-17.2-24.4-0.7c-1.8,3.3,0.1,2.2,3.4,0.9
						c3.2-1.3-15.2,7.4-13.9,31.2C91.4,148.1,84.9,150.9,87.9,152.6z"/>
					<path fill="#F6CBA1" d="M169.8,129.8c0,0-11.3,8.9-11.1,28.5c0.7,8.9,7.1,15.3,16.2,14.5c-0.4,2.2-0.4,2.7,0.9,2.7
						c1.3,0,6.2-6.7,19.4-9.8c2.4-0.7-0.9-3.8-3.1-2.9c2.9-9.6,2-27.1-7.1-33.6c-3.1-1.8,1.6-4.9,5.6,2.7c4,7.6,4.4-2.4,0.9-9.3
						c-3.6-6.9-14.9-9.6-22.9,0c-3.6,5.3,0.6,3.1,2.8,2.1C173.5,123.6,175.7,124.9,169.8,129.8z"/>
					<path fill="#F6CBA1" d="M140.6,146.6c0,0,0.2,10-6,14.9c-3.2,2-4.2,8.2,2.9,12.1c7.1,3.9,15.3,2.4,16-2.7
						c0.7-5-3.4,3.2-12.4,0.5c-5.2-2-5.9-9.9,1.5-7.9c-1.8-1.5-3.7-2.4-3.7-2.4S143,157.2,140.6,146.6z"/>
					<path fill="#F6CBA1" d="M114.4,175.2c0,0,0.8,0.1-0.4,1.4c5.8,0.1,13.6,1.3,24.3,4.9c10.8,3.6,20.7,5.9,26.8,1.3
						c0.9-0.8-1.9-1.2-0.1-2.7c1.8-1.5,5.9,2.3,6,4.2c0.1,1.9-2.8,1.4-3.3,1c-3.8,6-11.6,19.3-27.9,18.4
						c-8.2-0.6-15.7-6.8-20.7-16.1c-4-6.7-8.7-6.4-8.8-9.2C110.1,175.5,113.4,173.9,114.4,175.2z"/>
				</g>
				<path d="M76.6,140.9c-0.1-3.1-0.5-7-2.5-9.5c-1.5-2-4-2.9-6.3-2.2c-2.6,0.9-3.4,3.7-3.1,6.2c0.1,0.5,0.6,0.2,0.6-0.1
					c0.2-2.1,1.1-4.1,3.4-4.2c1.9-0.1,3.4,1.5,4.2,3.1c1.2,2.3,1.3,5.4,1.4,8c0,0,0,0,0,0c-0.4-0.1-0.7-0.1-1.1-0.1
					c-1.1,0-2.2,0-3.3,0.1c-0.3,0-3.3,0-3,0.8c0,0,0,0.1,0,0.1c0,0.1,0.1,0.2,0.3,0.2c1.3,0.2,2.5,0.4,3.8,0.7
					c1,0.2,2.3,0.6,3.4,0.4c0,0.8-0.1,1.6-0.2,2.4c-0.1,1.1-0.7,2.2-0.6,3.2c0,0.2,0.4,0.3,0.6,0.2c1.2-0.7,1.6-2.4,1.9-3.7
					C76.6,144.7,76.7,142.8,76.6,140.9z"/>
				<path d="M239.8,97.9c-1.4-2.6-3.4-5.1-5.3-7.4c-2-2.4-4.2-4.8-6.5-7c-3.2-3-9.1-6-9.4-11c0-0.2-0.3-0.1-0.3,0.1
					c-0.1,4.2,4,7.8,6.7,10.6c3.9,4.1,7.3,9.1,10.1,14c2.5,4.3,4,8.9,4,13.9c0,4.7-0.9,9.6-4.2,13.1c-0.6,0.6,0.1,1.3,0.8,0.9
					C244.8,119.5,244.4,106.4,239.8,97.9z"/>
				<path d="M130.8,121.4c-0.2-2.8-1.8-5.7-3.4-7.9c-1.7-2.4-4.3-4.4-7.2-5c-6.6-1.3-12,4-14.4,9.7c-0.2,0.5,0.4,0.6,0.6,0.2
					c2.5-4,8.1-7.6,13-6.5c2.4,0.6,4.3,2.3,6,4c1.7,1.8,2.8,4,4.3,5.9C130,122.4,130.8,122,130.8,121.4z"/>
				<path d="M167.9,123.6c1.3-2.5,3.8-4.6,6.1-6.1c2.5-1.6,5.6-2.5,8.5-1.9c6.6,1.3,9.6,8.2,9.8,14.4c0,0.5-0.6,0.4-0.6,0
					c-0.8-4.6-4.7-10.1-9.6-10.8c-2.5-0.4-4.9,0.5-7.1,1.5c-2.3,1-4.1,2.7-6.2,3.9C168.2,124.8,167.6,124.1,167.9,123.6z"/>
				<path d="M145.2,175.2c-2.8-0.3-5.4-0.8-7.7-2.6c-1.2-0.9-2-2.2-2.9-3.4c-1-1.3-2.1-3.1-1.9-4.8c0.7-4.7,8-1.5,10.7-0.9
					c0.5,0.1,1-0.7,0.5-0.9c-2.2-0.8-4.3-1.9-6.7-2.3c3.8-3.3,4.5-9.4,3.9-14c-0.1-0.4-0.6-0.3-0.6,0.1c0.2,5.1-1.1,10-4.5,13.8
					c-2.3,0-4.2,1.3-4.9,3.7c-1.1,3.7,0.4,8,3.1,10.6c3,3.1,7,2.2,10.8,1.5C145.5,176.1,145.8,175.3,145.2,175.2z"/>
				<g>
					<path d="M169.8,183.6c-0.5-1.4-2.2-2.1-3.3-3.1c-0.5-0.5-1.3,0.3-1,0.8l0,0c0,0,0,0,0,0c0.1,0.3,0.3,0.5,0.5,0.8
						c0.4,1.4-2.3,2.6-3.4,3c-2.1,0.9-4.4,1.2-6.6,1.3c-5.1,0.3-10.1-1.2-14.9-2.8c-4.8-1.6-9.5-3.5-14.4-4.5c-2.7-0.5-5.4-0.7-8-1
						c-1.4-0.1-2.7-0.4-4-0.5c-0.8-0.1-1.5-0.1-1.5-0.6c0,0,0,0,0,0c0.1,0,0.2-0.1,0.2-0.2c0-0.2-0.1-0.4-0.1-0.6
						c-0.1-0.4-0.5-0.4-0.8-0.2c-1.5,1.2-1.5,2.8,0.4,3.4c0.7,0.2,1.3,0.3,2,0.4c2,2,3.7,4.1,5.2,6.6c1.6,2.7,3.1,5.5,4.9,8
						c3.5,4.8,9,7.7,15,8c12.2,0.6,21.9-8.7,27.3-18.8c0.5,0.5,1,0.9,1.5,1.1C169.3,185.1,170.1,184.3,169.8,183.6z"/>
					<path fill="#FD909A" d="M139.6,199.9c-3.3-0.3-6.3-1.6-8.8-3.4c0.8-0.3,1.8-0.4,2.5-0.5c2.1-0.3,4.1-0.2,6.2,0.2
						c1.8,0.3,3.6,0.9,5.3,1.7c0.8,0.4,1.6,0.8,2.4,1.2c0.1,0.1,0.2,0.1,0.3,0.2C145,200,142.4,200.2,139.6,199.9z"/>
					<path fill="#5C0928" d="M155.1,195.8c-1.8,1.3-3.8,2.3-5.8,3c-0.8-1.1-3.1-1.9-3.9-2.3c-2.1-1-4.3-1.5-6.6-1.8
						c-2.1-0.3-4.2-0.2-6.3,0.3c-0.6,0.1-1.6,0.4-2.4,0.9c-1.6-1.3-3-2.8-4.2-4.5c-2.7-3.8-5.1-8.5-8.9-11.4c1.5,0,3-0.2,4.5-0.3
						c0.8,3.9,3.1,7.2,6.3,9.6c3.6,2.7,7.7,3.9,12,5c2.4,0.6,4.7,1,7.2,1c2.6,0,5.3-0.9,7.8-1.7c1.7-0.6,3.6-1.2,5.4-2
						C158.5,193,156.9,194.5,155.1,195.8z"/>
					<path fill="#FFFFFF" d="M161.8,189.3c-0.9,0.6-1.8,1-2.7,1.4c-1.8,0.7-3.7,1.4-5.6,2c-2.3,0.7-4.8,1.2-7.2,1.1
						c-2.3-0.2-4.6-0.9-6.8-1.5c-3.8-1.1-7.2-2.2-10.5-4.5c-2.8-2-5.2-4.8-6.4-8.1c6.6,0.1,13,3.1,19.1,5.1
						c5.8,1.9,11.8,3.3,17.9,2.1c1.5-0.3,4-1,5.7-2.2C164.2,186.3,163,187.8,161.8,189.3z"/>
					<path d="M152.1,206.7c-6.3,0.8-13,1.4-19-0.9c-1.9-0.7-3.7-1.8-5.5-2.8c-1.3-0.8-3.3-1.7-4.2-3c0,0-0.1,0-0.1,0
						c-0.6,1,1.5,2.7,2.1,3.2c1.7,1.6,3.5,3.1,5.5,4.2c6.4,3.5,14.6,2.4,21.2,0.1C152.6,207.4,152.7,206.7,152.1,206.7z"/>
				</g>
				<g>
					<path d="M193.6,164.3c-2-0.1-4,0.4-5.9,1.1c2.9-4.1,4-9.6,4.1-14.5c0-0.6,0-1.2,0-1.8c0.1-0.1,0.3-0.2,0.4-0.3
						c0.3-0.2,0.6-0.3,0.9-0.5c0.5-0.3,1-0.5,1.5-0.7c0.1-0.1,0.2-0.3,0-0.3c-0.6,0.1-1.3,0.2-1.9,0.4c-0.3,0.1-0.6,0.2-0.9,0.4
						c0-0.8-0.1-1.5-0.2-2.3c0.4-0.2,0.8-0.5,1.1-0.7c0.5-0.3,1-0.5,1.5-0.8c0.1-0.1,0.2-0.4,0-0.3c-0.5,0.2-1.1,0.3-1.6,0.5
						c-0.3,0.1-0.8,0.3-1.1,0.5c-0.1-0.7-0.2-1.3-0.4-2c0.2,0,0.4-0.1,0.5-0.1c0.2-0.1,0.3-0.2,0.5-0.3c0.3-0.2,0.6-0.4,0.9-0.6
						c0.2-0.2,0-0.4-0.2-0.3c-0.5,0.3-1.1,0.4-1.7,0.7c0,0-0.1,0.1-0.1,0.1c-0.8-3.1-2.1-6.1-4.1-8.6c-0.8-1.8-3-3.5-4.7-4.4
						c-2.5-1.3-4.7-1-7.2,0.1c-6,2.5-9.9,8.3-12.1,14.2c-3.5,9.1-4,22.9,7.1,26.8c2.8,1,5.9,1.1,8.8,0.5c-0.4,0.4-0.8,0.7-1.2,1.1
						c-0.5,0.5,0.1,1.1,0.6,0.7c1.3-1,2.6-2,4-2.8c0.8-0.4,1.6-0.9,2.4-1.4c0.3-0.2,0.6-0.3,0.9-0.5c2.6-1.3,5.5-2,8.2-2.9
						C194.2,165.1,194.3,164.3,193.6,164.3z"/>
					<path fill="#FFFFFF" d="M170.9,168.7c-2.9-1-5.4-2.8-6.8-5.6c-1.4-2.7-1.7-5.9-1.5-8.8c0.4-6.6,2.8-13.2,7.2-18.2
						c2.4-2.8,5.6-5.4,9.3-6.1c1.2,0.1,2.5,0.5,3.7,1.4c3.4,2.3,5.6,6.1,6.8,10c1.2,3.8,1.5,7.9,1.1,11.8c-0.4,3.6-1.4,7.8-3.7,10.7
						C183.3,168.7,176.6,170.7,170.9,168.7z"/>
					<g>
						<g>
							<g>
								<path fill="#1037B5" d="M169.9,150.5c-1.3,4.9,0.6,9.8,4.1,10.9c3.5,1.1,7.4-1.9,8.6-6.8c1.3-4.9-0.6-9.8-4.1-10.9
									C175,142.5,171.1,145.6,169.9,150.5z"/>
								<path fill="#2178E0" d="M170.7,150.7c-1.1,4.3,0.5,8.6,3.6,9.6c3.1,1,6.4-1.7,7.5-6c1.1-4.3-0.5-8.6-3.6-9.6
									C175.2,143.8,171.8,146.4,170.7,150.7z"/>
								<path d="M173.2,152.1c-0.6,2.3,0.3,4.6,1.9,5.1c1.6,0.5,3.5-0.9,4.1-3.2c0.6-2.3-0.3-4.6-1.9-5.1
									C175.6,148.4,173.8,149.8,173.2,152.1z"/>
								<path fill="#FFFFFF" d="M173.3,147.7c-0.3,1.3,0.1,2.6,1.1,2.9c0.9,0.3,1.9-0.5,2.3-1.8c0.3-1.3-0.1-2.6-1.1-2.9
									C174.6,145.6,173.6,146.4,173.3,147.7z"/>
								<path fill="#FFFFFF" d="M172.1,152.5c-0.2,0.6,0.1,1.3,0.5,1.4c0.5,0.1,1-0.2,1.1-0.9c0.2-0.6-0.1-1.3-0.5-1.4
									C172.8,151.5,172.3,151.9,172.1,152.5z"/>
							</g>
						</g>
					</g>
				</g>
				<g>
					<path d="M128.1,141.5c0.1-6.3-1.4-13.2-6-17.7c-2-1.9-3.8-3.1-6.6-2.8c-1.9,0.2-4.5,0.9-5.9,2.3c-3.6,2.1-6.5,5.3-8.6,8.9
						c-0.2-0.2-0.6-0.3-0.8-0.5c-0.4-0.3-0.8-0.7-1.1-1.1c-0.1-0.1-0.4,0.1-0.3,0.2c0.3,0.4,0.6,0.9,0.9,1.3
						c0.2,0.3,0.5,0.6,0.9,0.8c-0.3,0.5-0.6,1.1-0.8,1.6c-0.3-0.2-0.7-0.4-1-0.6c-0.5-0.3-0.9-0.6-1.3-0.9c-0.3-0.2-0.6,0.2-0.4,0.4
						c0.6,0.5,1.5,1.7,2.4,1.7c-0.2,0.5-0.5,1.1-0.7,1.6c-0.7-0.5-1.7-0.6-2.5-1c-0.3-0.1-0.6,0.4-0.4,0.6c0.8,0.5,1.7,0.8,2.4,1.5
						c0,0,0.1,0,0.1,0.1c-1.8,5-2.8,11-0.8,16.1c-0.1,0-0.1-0.1-0.2-0.1c-0.7-0.3-5.3-3.1-5.7-1.6c0,0.1,0.1,0.2,0.2,0.1
						c0.4-0.2,2.1,1.2,2.4,1.4c0.9,0.6,1.7,1.2,2.6,1.8c3.2,2.2,5.3,5.7,8.7,7.7c0.4,0.2,1.1-0.2,0.9-0.7c0,0,0-0.1,0-0.1
						c1.7,0.7,3.5,1.1,5.2,1.1C123.3,164.2,127.9,151.3,128.1,141.5z"/>
					<path fill="#FFFFFF" d="M124.4,151.3c-0.9,2.8-2.4,5.6-4.7,7.6c-2.3,2-5.4,2.8-8.4,2.6c-2.5-0.1-5-1-7.1-2.3
						c-1-1.3-2.3-2.4-3.7-3.4c-1.1-1.4-1.9-3-2.3-4.7c-1-3.6-0.3-7.8,0.6-11.3c1-3.8,2.9-7.5,5.4-10.6c2.5-3.1,6-5.9,10-6.7
						c1.4-0.3,2.7-0.2,3.9,0.1c3.2,2,5.1,5.7,6.3,9.1C126.6,138,126.4,145.1,124.4,151.3z"/>
					<g>
						<g>
							<g>
								<path fill="#1037B5" d="M106.5,142.1c-1.3,5,0.6,10.1,4.2,11.3c3.6,1.2,7.6-2,8.9-7c1.3-5-0.6-10.1-4.2-11.3
									C111.8,133.9,107.8,137.1,106.5,142.1z"/>
								<path fill="#2178E0" d="M107.5,142.4c-1.1,4.3,0.5,8.6,3.6,9.6c3.1,1,6.4-1.7,7.5-6c1.1-4.3-0.5-8.6-3.6-9.6
									C112,135.5,108.6,138.1,107.5,142.4z"/>
								<path d="M110,143.9c-0.6,2.3,0.3,4.6,1.9,5.1c1.6,0.5,3.5-0.9,4.1-3.2c0.6-2.3-0.3-4.6-1.9-5.1
									C112.4,140.1,110.6,141.6,110,143.9z"/>
								<path fill="#FFFFFF" d="M110.1,139.4c-0.3,1.3,0.1,2.6,1.1,2.9c0.9,0.3,1.9-0.5,2.3-1.8c0.3-1.3-0.1-2.6-1.1-2.9
									C111.4,137.3,110.4,138.1,110.1,139.4z"/>
								<path fill="#FFFFFF" d="M109,144.2c-0.2,0.6,0.1,1.3,0.5,1.4c0.5,0.2,1-0.2,1.1-0.9c0.2-0.6-0.1-1.3-0.5-1.4
									C109.6,143.2,109.1,143.6,109,144.2z"/>
							</g>
						</g>
					</g>
				</g>
				<g>
					<path fill="#FDC566" d="M268.1,185.5c-2.1,0.7-4.6,0.7-6.6-0.3c-6-3-5.5-10.3-3.5-15.7c1-2.6,2.2-5,3-7.7
						c0.6-2.2,1-4.5,1.2-6.8c-0.5-1.8-0.3-3.6-0.8-5.4c-0.5-1.9-1.8-3.2-3.4-4.4c-3.1-2.3-7-4.3-8.8-8c-1.1-2.3-1.3-4.7-1.5-7.1
						c-0.2-2.7-0.3-5.4-0.3-8.1c-0.1-5.4,0.1-10.9-0.7-16.3c-0.6-4.3-1.9-8.5-3.2-12.7c-1.3-4.3-2.8-8.5-4.3-12.8
						c-2.7-7.2-5.6-14.4-9.8-20.9c-2-3.1-4.2-6.1-6.8-8.6c-2.6-2.5-5.7-4.6-8.7-6.7c-3.1-2.1-6.4-4.3-10.1-5.3
						c-1.9-0.5-3.9-0.6-5.8-0.5c0.4,1.3,0.5,2.6,0.6,3.9c-0.4-1.2-0.8-2.3-1.3-3.4c-0.8-1.6-2.1-2.9-3.5-3.9
						c-1.1-0.8-2.3-1.4-3.5-1.9c-1.6-1-3.3-1.8-4.8-2.4c-4.6-1.9-9.4-3.1-14.2-4c17.6,6.2,26.2,15.2,28.8,20.1
						c4.7-18.8,34.1,19.7,36.7,40.3c-10.3-15.9-22.3-20.6-22.3-20.6s-1.2,12.1,6.8,17.9c20.6,14.7,13.5,33.5,13.5,33.5
						c2.1-9.1-5.3-14.1-17.3-19.1c-27.3-9.7-27.9-30.3-25.6-52.3c-10,27.9-38.5,43.2-38.5,43.2s5.9-7.6,7.6-16.5
						c-23.8,24.7-60.3,29.7-74.1,15.6c29.7,2.1,41.6-14.2,41.6-14.2s-34.3,6.8-47.2-4.3c15.3-4.7,21.2-19.4,21.2-19.4
						s-12.6,1.8-18.5,12.9c-0.3-8.2,3.8-15.6,9.1-21.8c-3.5,2.8-6.8,5.9-9.6,9.5c-4.9,6.2-8.1,13.5-10.2,21.1
						c-1.1,4.2-1.9,8.4-2.6,12.7c-0.6,3.7-0.9,7.6-2,11.2c-1.7,5.7-5.3,9.9-11.1,11.9c-3.1,1-6.3,1.4-9.3,2.5
						c-3.2,1.2-5.8,3.1-7.9,5.9c-0.1,0.1-0.2,0.1-0.3,0.1c-0.9,1.3-1.7,2.7-2.3,4.2c-0.5,1.2-0.8,2.5-0.9,3.8
						c-0.1,1.4,0.3,2.7,0.5,4.1c0.4,2.9-0.4,5.8-1.6,8.4c-2.1,4.3-5.4,8.1-10.4,8.6c-1.9,0.2-3.9,0-5.7-0.8
						c-1.7-0.8-2.9-1.9-4.1-3.2c0.5,6,8.8,9.6,14.2,8.5c0,0,0,0,0,0c1.6-4,4.5-7.4,8.8-8.4c-3.2,1.9-5.8,5.2-6.7,8.7
						c-0.5,2.1-0.5,4.5,0,6.8c0,0.5,0.1,1,0.2,1.5c0.6,3.9,2.3,7.3,5,10.3c2,2.2,4.4,3.9,6.7,5.7c-0.5-1.5-1.2-3-1.3-4.6
						c-0.2-1.9,0.3-3.5,0.9-5.2c-0.2,2.3,1.1,4.3,2.3,6.2c2,3.1,5.2,5,8.7,6.4c2.2,1.5,4.6,2.8,7.1,3.8c1.5,0.6,3.1,1,4.7,1.5
						c-0.9-2.7-1.1-5.6-1.2-8.5c0.9,2.4,2.1,4.6,3.4,6.6c1,1.6,2.4,2.8,3.9,3.8c2.6,2.2,5.5,3.5,8.8,4.2c1.7,0.4,3.5,0.9,5.2,1
						c0.6,0.1,1.2,0.1,1.9,0.2c0.1,0,0.1,0,0.2,0c-4.4-5.1-8.6-10.8-11-17.1c-1.8-4.7-2.2-9.5-1.8-14.3c-1.2,1.6-3.5,0.6-4.9-0.3
						c-2.2-1.5-4.5-3.1-6.3-5.2c-1.7-2.1-3-4.5-3.9-7.1c-1.7-5.2-1.8-11.1,0.3-16.2c2.2-5.3,7.1-9.7,13.2-9.4
						c2.7,0.2,5.6,1.3,7.3,3.6c0-0.2,0-0.3,0.1-0.5c1.2-8.6,3.3-17.2,6.9-25.1c0.1-0.2,0.2-0.3,0.2-0.5c-1.2-0.8-2.4-1.7-3.5-2.7
						c-5.2-4.6-11-11.1-10.7-18.6c0-0.7,0.8-1.2,1.4-0.8c1.7,1.1,3.6,2,5.3,3c1.8,1.1,3.6,2.2,5.5,3c2.4,1,4.9,1.6,7.5,1.9
						c1,0.5,2.3,0.8,3.3,0.9c2.9,0.3,6,0.2,8.9-0.2c1.5-0.2,3-0.6,4.5-1c-0.9,0.5-1.9,0.9-2.8,1.3c-2.2,0.7-4.4,1.3-6.6,1.7
						c-1.6,0.2-3.2,0.3-4.7,0.3c0,0,0,0.1-0.1,0.1c-0.5,0-1.1,0-1.6-0.1c0,0,0,0,0-0.1c-0.3,0-0.7,0-1-0.1c-0.1,0-0.2,0-0.3-0.1
						c-0.8-0.1-2.3-0.6-3.3-0.4c-1.8-0.3-3.6-0.8-5.3-1.5c-2-0.8-4-1.9-5.7-3.2c-1.2-0.9-2.3-2-3.4-3c0.4,2.9,2.1,5.5,4,7.7
						c2.2,2.7,4.8,5,7.5,7.3c0.3,0.3,0.7,0.5,1,0.8c0.1,0,0.1,0,0.2,0c0.9,1.3,2.4,2,3.8,2.7c1,0.4,2,0.8,3.1,1.1
						c3.5,1.3,7.2,2,11,2.3c0.6,0.1,1.1,0.2,1.7,0.3c2.7,0.4,5.5,0,8.2-0.2c2.6-0.3,5.2-0.2,7.7-0.5c2.5-0.3,4.8-1,7-2.1
						c1.4-0.7,2.7-1.4,4-2.3c2.4-1.1,4.8-2.3,7-3.8c5.7-3.7,10.5-8.2,14.9-13.3c0.2-0.3,0.5,0,0.3,0.3c-4.2,5.7-8.9,11.5-14.6,15.8
						c-2.1,1.6-4.4,3.1-6.8,4.4c9.7-0.9,19-4.8,27.2-10.3c5.9-4,11.6-8.7,16.1-14.2c2.5-3.1,4.6-6.4,6.4-9.9
						c1.4-2.7,2.2-5.8,3.5-8.5c-0.2,3.1-0.8,6.2-0.8,9.3c-0.5,4,0,8.1,0.9,12c1.6,6.8,4.2,13.1,10,17.5c4.5,3.4,9.9,5.2,15.2,6.9
						c3,1,6.1,2.1,9,3.5c0.7,1.1,2.7,2.1,3.3,2.5c1.6,1,2.8,2.7,3.7,4.3c0.7,1.3,1,2.6,1,4c-0.7-2.8-3.1-4.6-6-6
						c-0.6,2.5-1.2,5-1.8,7.6c-1.1,5.2-2.1,10.3-2.7,15.6c2.2-2.1,5.7-3,8.4-1.6c4.6,2.5,6.8,8.4,6.4,13.4c-0.4,5.4-2.6,11-6.4,15
						c-1.6,1.7-3.4,3.2-5.5,4.2c-0.7,0.4-2.4,1-3.3,0.7c-0.4,3.5-1.1,7-2.6,10.3c-5.2,11.6-14.7,20.6-25.7,26.8c1,0.2,2,0.3,3.1,0.1
						c1.8-0.2,3.6-0.8,5.4-1.3c3.5-1,7-2.6,9.9-4.6c3-2.1,5.4-4.8,7.3-7.9c0.1-0.1,0.2-0.3,0.2-0.4c-0.3,1.2-0.7,2.5-1.1,3.7
						c-0.5,1.3-1,2.5-1.7,3.6c-1.3,1.5-2.8,2.8-4.6,4c-2.3,1.5-4.7,2.8-7.3,3.8c0.7,0.3,1.5,0.5,2.3,0.6c1.7,0.3,3.5,0.3,5.3,0.3
						c3.4,0,6.7-0.6,9.9-1.9c3.1-1.3,6-3.1,8.6-5.2c1.5-1,2.9-2.2,4.2-3.5c0.9-0.9,1.9-1.8,2.7-2.8c-0.4,1.1-1,2.2-1.5,3.1
						c-1,1.7-2.1,3.4-3.4,4.9c-0.7,0.8-1.4,1.5-2.1,2.2c1.2-0.3,2.4-0.3,3.6-0.6c1.1-0.2,2.2-0.5,3.3-0.8c2.2-0.6,4.3-1.6,6.1-3
						c2.6-2.1,3.9-5.1,4.2-8.3c0.6-1.8,0.9-3.8,1-5.7c0.4,1.2,0.8,2.3,1.1,3.5c0.2-0.1,0.4-0.1,0.6,0.1c1,0.6,2.2,1.2,3.3,1.7
						c1.1,0.5,2.1,0.9,3.2,1.3c2.1,0.8,4.5,1.2,6.7,1c4-0.5,9.3-3.2,10.1-7.5C271.1,183.8,269.8,185,268.1,185.5z"/>
				</g>
				<path fill="#FDDF66" d="M150.3,25.8c0,0-38.8,0-55,20c10.3-6.5,23.2-4.7,23.2-4.7s-6.2,23.5-27.1,27.4
					c27.1,3.5,42.4,1.8,52.4-14.4c2.9,11.5-10.3,29.1-25.6,33.8c22.7-0.3,39.7-12.4,48.3-32.1c5,7.1-3.2,21.5-3.2,21.5
					s39.4-34.1,10.9-47.1c7.4,5.6-0.9,26.2-5.6,17.7c-4.7-8.5-12.4,15.9-15.3,1.8c-2.9-14.1-20.6,0.6-15.9-6.8
					C142.1,35.5,106.5,33.4,150.3,25.8z"/>
				<g>
					<path fill="#FDC066" d="M77.9,118.4c-3.7-2.2-11.5-2.6-18.9,8.2c-7.4,10.8-2.6,27.8,0.7,39.3c-18.9-10.4-8.2-24.8-8.2-24.8
						s-8.5,6.3-10,17.8c-6.3-16.7,9.6-22.3,4.1-30.8c-1.5,10.4-7.8,10.4-7.8,10.4s4.5-4.1,2.6-10.8c-1.9-6.3,0.1-10.9,2.8-14.1
						c-1.1,0.9-2.1,1.9-3,3.1c-0.1,0.1-0.2,0.1-0.3,0.1c-0.9,1.3-1.7,2.7-2.3,4.2c-0.5,1.2-0.8,2.5-0.9,3.8
						c-0.1,1.4,0.3,2.7,0.5,4.1c0.4,2.9-0.4,5.8-1.6,8.4c-2.1,4.3-5.4,8.1-10.4,8.6c-1.9,0.2-3.9,0-5.7-0.8
						c-1.7-0.8-2.9-1.9-4.1-3.2c0.5,6,8.8,9.6,14.2,8.5c0,0,0,0,0,0c1.6-4,4.5-7.4,8.8-8.4c-3.2,1.9-5.8,5.2-6.7,8.7
						c-0.5,2.1-0.5,4.5,0,6.8c0,0.5,0.1,1,0.2,1.5c0.6,3.9,2.3,7.3,5,10.3c2,2.2,4.4,3.9,6.7,5.7c-0.5-1.5-1.2-3-1.3-4.6
						c-0.2-1.9,0.3-3.5,0.9-5.2c-0.2,2.3,1.1,4.3,2.3,6.2c2,3.1,5.2,5,8.7,6.4c2.2,1.5,4.6,2.8,7.1,3.8c1.5,0.6,3.1,1,4.7,1.5
						c-0.9-2.7-1.1-5.6-1.2-8.5c0.9,2.4,2.1,4.6,3.4,6.6c1,1.6,2.4,2.8,3.9,3.8c2.6,2.2,5.5,3.5,8.8,4.2c1.7,0.4,3.5,0.9,5.2,1
						c0.6,0.1,1.2,0.1,1.9,0.2c0.1,0,0.1,0,0.2,0c-4.4-5.1-8.6-10.8-11-17.1c-1.8-4.7-2.2-9.5-1.8-14.3c-1.2,1.6-3.5,0.6-4.9-0.3
						c-2.2-1.5-4.5-3.1-6.3-5.2c-1.7-2.1-3-4.5-3.9-7.1c-1.7-5.2-1.8-11.1,0.3-16.2c2.2-5.3,7.1-9.7,13.2-9.4
						c2.7,0.2,5.6,1.3,7.3,3.6c0-0.2,0-0.3,0.1-0.5c0.9-6.4,2.3-12.8,4.4-18.9C80.9,110.9,81.4,120.5,77.9,118.4z"/>
				</g>
			</g>
		</g>
		<g>
			<path fill="#D4D0CD" d="M159.6,186.9c-6.1,1.2-12.1-0.2-17.9-2.1c-6.2-2.1-12.5-5-19.1-5.1c0.5,1.2,1.1,2.3,1.8,3.4
				c0.1-1.1,1.1-2.5,6.4-0.4c8,3.1,15.6,5.8,21.8,6c5.4,0.2-1.3,5.4-12.7,3.7c2.1,0.6,4.3,1.3,6.5,1.4c2.4,0.2,4.9-0.4,7.2-1.1
				c1.9-0.6,3.8-1.2,5.6-2c0.9-0.4,1.9-0.8,2.7-1.4c1.2-1.5,2.4-3,3.5-4.6C163.6,185.9,161.1,186.6,159.6,186.9z"/>
		</g>
		<g>
			<path fill="#D4D0CD" d="M124.5,131.8c-1.2-3.4-3.2-7.1-6.3-9.1c-1.2-0.4-2.5-0.4-3.9-0.1c-4,0.9-7.5,3.6-10,6.7
				c-2.5,3.1-4.3,6.7-5.4,10.6c-1,3.5-1.6,7.7-0.6,11.3c0.5,1.7,1.3,3.3,2.3,4.7c1.4,1,2.6,2.1,3.7,3.4c2.1,1.4,4.5,2.2,7.1,2.3
				c3,0.2,6.1-0.6,8.4-2.6c2.3-2,3.8-4.8,4.7-7.6C126.4,145.1,126.6,138,124.5,131.8z M124.3,145c-1.7,8.7-8,14.8-14.2,13.7
				c-6.2-1.2-9.9-9.2-8.2-17.9c1.7-8.7,8-14.8,14.2-13.7C122.2,128.2,125.9,136.2,124.3,145z"/>
		</g>
		<g>
			<path fill="#D4D0CD" d="M189.5,141.3c-1.2-3.8-3.4-7.7-6.8-10c-1.2-0.8-2.4-1.2-3.7-1.4c-3.7,0.7-6.9,3.4-9.3,6.1
				c-4.3,5-6.7,11.6-7.2,18.2c-0.2,3,0.2,6.1,1.5,8.8c1.4,2.8,3.9,4.6,6.8,5.6c5.7,1.9,12.4,0,16-4.8c2.2-3,3.2-7.1,3.7-10.7
				C191.1,149.2,190.7,145.1,189.5,141.3z M188.1,153.4c-1.7,8.7-8,14.8-14.2,13.7c-6.2-1.2-9.9-9.2-8.2-17.9
				c1.7-8.7,8-14.8,14.2-13.7C186,136.7,189.7,144.7,188.1,153.4z"/>
		</g>
		<g>
			<path fill="#FD909A" d="M147.3,199.1c-0.7-0.4-1.5-0.9-2.3-1.2c-1.5,0.6-4.6,0.8-7.9,0c-2.2-0.5-3.2-1.2-3.6-1.9c0,0-0.1,0-0.1,0
				c-0.7,0.1-1.7,0.2-2.5,0.5c2.5,1.8,5.5,3.1,8.8,3.4c2.7,0.3,5.3,0.1,7.9-0.5C147.4,199.3,147.3,199.2,147.3,199.1z"/>
		</g>
		<path fill="#F6CBA1" d="M124.1,202c0,0,9.6,10.8,26.2,5.8c3.2-0.6-5.4,4.4-14,2.8C127.7,209,121.3,200.4,124.1,202z"/>
		<g>
			<path fill="#F6CBA1" d="M215.2,107.3c-5-1.2-10-2.4-14.6-4.8c-5.9-3.1-11.1-7.6-13.5-14c-2.4-6.4-2.9-13.4-1.7-20.2
				c-1.7,3.5-3.8,6.8-6.2,9.8c-4.5,5.6-10.3,10.4-16.4,14.3c-9.5,6.1-20.6,9.7-31.7,8.8c-2.9,1.2-6,2.2-9,2.6
				c-6.3,0.9-12.8,1.3-19.1,0.3c-3.1-0.5-6.2-1.3-9-2.8c-1.4-0.5-2.8-1.2-4.1-1.9c-0.8,2-1.5,4.1-2.2,6.2c-3.2,10.7-4.2,22-6.7,32.9
				c-1,4.2-2.2,8.3-3.2,12.4c-1,4.2-1.9,8.6-1.2,12.9c1.2,7.6,5.2,14.3,10,20.2c4.9,6.1,10.5,11.7,17.1,16
				c6.4,4.2,13.4,7.3,20.9,9.2c14.1,3.5,29,3,43-0.5c12.8-3.3,25.6-8.9,35.3-18.1c4.7-4.4,8.7-9.6,11.5-15.5
				c3.8-8,3.2-16.8,2.9-25.4c-0.4-8.9,0.2-17.6,1.9-26.3c0.8-4.3,1.8-8.5,3-12.8c0.1-0.4,0.2-0.9,0.4-1.3
				C219.9,108.3,217.2,107.7,215.2,107.3z M214.7,128.7c-2.1,15-2.1,20.3-1.5,30.4c0.6,10.1-4,36.8-50.3,47.6
				c-15,3.7-35,8.3-58.9-11.7c-23.9-20-27.3-33.2-23.6-45.7c3.7-12.6,8.9-46,14.7-43.6c4.7,2,20.6,3.1,34.4-1.8
				c16.3,2.8,41.1-7.1,51-22.4c1.5,15,17.5,26.7,28.9,28.2C216.8,111.2,216,119.6,214.7,128.7z"/>
		</g>
		<g>
			<path fill="#FDC066" d="M268.1,185.5c-2.1,0.7-4.6,0.7-6.6-0.3c-6-3-5.5-10.3-3.5-15.7c1-2.6,2.2-5,3-7.7c0.6-2.2,1-4.5,1.2-6.8
				c-0.5-1.8-0.3-3.6-0.8-5.4c-0.5-1.9-1.8-3.2-3.4-4.4c-3-2.2-6.7-4.2-8.5-7.5c1,2.3,2.5,4.5,4.6,6.5c15.9,18.5-10.4,34.1-6.7,28.6
				c3.7-5.6,6.3-13.7-2.6-22.3c-4.5,18.5-20.8,19.3-20.8,19.3c26.7-26.7,8.9-43.4-0.7-42.7c0.5-3.5,0-7.3-0.3-9.6c0,0,0,0,0,0.1
				c-1.1,5.2-2.1,10.3-2.7,15.6c2.2-2.1,5.7-3,8.4-1.6c4.6,2.5,6.8,8.4,6.4,13.4c-0.4,5.4-2.6,11-6.4,15c-1.6,1.7-3.4,3.2-5.5,4.2
				c-0.7,0.4-2.4,1-3.3,0.7c-0.4,3.5-1.1,7-2.6,10.3c-5.2,11.6-14.7,20.6-25.7,26.8c1,0.2,2,0.3,3.1,0.1c1.8-0.2,3.6-0.8,5.4-1.3
				c3.5-1,7-2.6,9.9-4.6c3-2.1,5.4-4.8,7.3-7.9c0.1-0.1,0.2-0.3,0.2-0.4c-0.3,1.2-0.7,2.5-1.1,3.7c-0.5,1.3-1,2.5-1.7,3.6
				c-1.3,1.5-2.8,2.8-4.6,4c-2.3,1.5-4.7,2.8-7.3,3.8c0.7,0.3,1.5,0.5,2.3,0.6c1.7,0.3,3.5,0.3,5.3,0.3c3.4,0,6.7-0.6,9.9-1.9
				c3.1-1.3,6-3.1,8.6-5.2c1.5-1,2.9-2.2,4.2-3.5c0.9-0.9,1.9-1.8,2.7-2.8c-0.4,1.1-1,2.2-1.5,3.1c-1,1.7-2.1,3.4-3.4,4.9
				c-0.7,0.8-1.4,1.5-2.1,2.2c1.2-0.3,2.4-0.3,3.6-0.6c1.1-0.2,2.2-0.5,3.3-0.8c2.2-0.6,4.3-1.6,6.1-3c2.6-2.1,3.9-5.1,4.2-8.3
				c0.6-1.8,0.9-3.8,1-5.7c0.4,1.2,0.8,2.3,1.1,3.5c0.2-0.1,0.4-0.1,0.6,0.1c1,0.6,2.2,1.2,3.3,1.7c1.1,0.5,2.1,0.9,3.2,1.3
				c2.1,0.8,4.5,1.2,6.7,1c4-0.5,9.3-3.2,10.1-7.5C271.1,183.8,269.8,185,268.1,185.5z"/>
		</g>
		<path fill="#FDDF66" d="M195.5,57.3c0,0-4.5,27,22.9,35.6c-11.9-8.2-11.5-27-8.6-34c10.6,2.9,15.6,10.5,15.6,10.5
			s-15.2-32.7-22.6-17.9C197.1,43.4,195.5,54,195.5,57.3z"/>
		<path fill="#F6CBA1" d="M230.7,140.9c-1.7-1.9-3.5-1.5-5.7-1.6c-0.6,0-1.6-0.3-2.1-0.8c-1.5-1.5-1.8-3-1.5-4.4
			c-0.6,0.4-1,0.8-1.4,1.3c-0.1,0.6-0.1,1.3-0.1,1.9c-0.3,4-0.2,7.9-0.1,11.9c0.4-1.6,1-3.2,1.8-4.4c1.1-1.8,3-3.8,5.2-4.1
			c2.4-0.3,3.3,1.6,3.4,3.7c0,0.5-0.9,1-1,0.3c-0.2-0.7-0.5-2.1-1.4-2.1c-0.7,0-1.4,0.3-2,0.7c-1.3,0.9-2.2,2.1-2.8,3.6
			c-0.6,1.4-1.1,2.9-1.4,4.5c0.9,0.2,1.6,0.6,2.4,1.2c0.7,0.5,1.3,1,2.1,1.2c0.1,0,0,0.2,0,0.2c-1.1,0.3-2.1,0.8-3.3,0.6
			c-0.7-0.1-1.2-0.5-1.5-1c-0.1,0.8-0.1,1.7-0.1,2.5c0,0.7,0.3,1.5,0.2,2.2c0,0.2-0.2,0.4-0.4,0.3c-0.3,0-0.5-0.2-0.7-0.3
			c0,1.7,0,3.3-0.1,5c1.3,0,2.8-0.9,3.8-1.7c1.5-1.1,2.8-2.2,3.9-3.6c2.5-3.3,4.2-7.3,4.7-11.4c0.1-1.1,0.2-2.3,0.1-3.5
			C231.8,142.3,231.3,141.6,230.7,140.9z"/>
		<path fill="#F6CBA1" d="M78.7,125.2c-0.1,1.3-0.6,2.5-1.8,3.3c-1.4,0.8-3,1.2-4.5,0.5c-0.8-0.3-1.6-0.8-2.3-1
			c-2.2-0.6-4.2,0.9-5.2,2.8c-1.5,3-0.8,5.6-0.6,8.7c0.1,1.3,0.1,3.3-1.4,3.9c-0.4,0.2-0.8,0.3-1.1,0.3c0.6,1.9,1.4,3.6,2.4,5.2
			c1.2,1.9,2.8,3.7,4.7,5c1.9,1.2,3.7,3,5.9,3.4c0.2,0,0.3,0.1,0.4,0.2c0.3-2.5,0.7-5,1.4-7.5c1.8-7.4,2.7-15,3.8-22.5
			C80,126.8,79.5,126,78.7,125.2z"/>
		<path fill="#F3C8AB" d="M68.3,129.7c-7.7,2.3-2.3,11.7,1,14.5c0.6,0.5,1.9,1.2,3.3,1.7c1,0.3-0.4,1.5-5-1.8
			c0.6,2.1,5.4,6.1,6.7,4.6c2.9-3.7,2.4-9.2,1.1-13.1C74.7,133.6,72.5,128.5,68.3,129.7z"/>
		<path fill="#F3C8AB" d="M226.6,141.9c6.1,1.9,1.9,9.3-0.8,11.5c-0.5,0.4-1.5,1-2.7,1.3c-0.8,0.2,0.3,1.2,4-1.4
			c-0.5,1.6-4.3,4.8-5.3,3.7c-2.3-2.9-1.9-7.3-0.8-10.4C221.5,145,223.3,140.9,226.6,141.9z"/>
		<path fill="#FFFFFF" d="M177,179c0,0,7-11.4,21.8-11C193.3,165.7,181.2,168.6,177,179z"/>
		<path fill="#FFFFFF" d="M87.2,154c0,0,12,1.8,18.2,16.1C105.1,162,95.6,153.3,87.2,154z"/>
	</g>
</g>
</svg>
